<?xml version="1.0" encoding="UTF-8" standalone="no"?>
<!DOCTYPE svg PUBLIC "-//W3C//DTD SVG 1.1//EN" "http://www.w3.org/Graphics/SVG/1.1/DTD/svg11.dtd">
<svg width="100%" height="100%" viewBox="0 0 1000 1000" version="1.1" xmlns="http://www.w3.org/2000/svg" xmlns:xlink="http://www.w3.org/1999/xlink" xml:space="preserve" xmlns:serif="http://www.serif.com/" style="fill-rule:evenodd;clip-rule:evenodd;stroke-linejoin:round;stroke-miterlimit:2;">
    <g transform="matrix(1,0,0,1,-5.5,37.5)">
        <g transform="matrix(22.986669,0,0,22.986669,214.345347,149.994973)">
            <path d="M5.073,17.719L9.991,14.961L10.072,14.72L9.991,14.585L9.748,14.585L8.924,14.535L6.113,14.46L3.681,14.36L1.317,14.234L0.723,14.109L0.169,13.369L0.223,13.006L0.723,12.668L1.439,12.73L3.019,12.843L5.397,13.006L7.113,13.106L9.667,13.369L10.072,13.369L10.126,13.207L9.991,13.106L9.883,13.006L7.424,11.339L4.762,9.584L3.371,8.568L2.628,8.054L2.249,7.578L2.087,6.525L2.763,5.773L3.681,5.836L3.911,5.898L4.843,6.613L6.829,8.155L9.424,10.06L9.802,10.373L9.954,10.271L9.978,10.198L9.802,9.91L8.397,7.365L6.897,4.77L6.221,3.692L6.046,3.053C5.978,2.785 5.938,2.563 5.938,2.288L6.708,1.235L7.14,1.097L8.181,1.235L8.613,1.611L9.261,3.091L10.302,5.41L11.923,8.568L12.396,9.509L12.653,10.373L12.747,10.637L12.909,10.637L12.909,10.486L13.044,8.706L13.288,6.525L13.531,3.717L13.612,2.928L14.004,1.975L14.787,1.461L15.395,1.749L15.895,2.464L15.828,2.928L15.531,4.858L14.95,7.879L14.571,9.91L14.787,9.91L15.044,9.646L16.071,8.293L17.787,6.137L18.544,5.284L19.435,4.344L20.003,3.893L21.084,3.893L21.867,5.071L21.516,6.287L20.408,7.691L19.489,8.882L18.172,10.647L17.355,12.066L17.428,12.183L17.625,12.166L20.597,11.527L22.205,11.238L24.123,10.912L24.988,11.314L25.083,11.727L24.745,12.567L22.691,13.069L20.286,13.557L16.705,14.4L16.666,14.432L16.712,14.502L18.327,14.648L19.016,14.686L20.705,14.686L23.853,14.924L24.677,15.463L25.164,16.127L25.083,16.641L23.813,17.28L22.11,16.879L18.125,15.927L16.76,15.588L16.571,15.588L16.571,15.701L17.706,16.817L19.8,18.697L22.408,21.129L22.543,21.73L22.205,22.207L21.854,22.157L19.557,20.427L18.665,19.65L16.666,17.957L16.53,17.957L16.53,18.133L16.99,18.81L19.435,22.483L19.557,23.611L19.381,23.974L18.746,24.2L18.057,24.075L16.611,22.056L15.139,19.8L13.95,17.769L13.806,17.86L13.099,25.416L12.774,25.804L12.018,26.093L11.383,25.616L11.045,24.839L11.383,23.297L11.788,21.292L12.112,19.7L12.409,17.719L12.591,17.058L12.575,17.013L12.43,17.038L10.937,19.085L8.667,22.157L6.87,24.075L6.438,24.25L5.695,23.861L5.762,23.172L6.181,22.558L8.667,19.399L10.167,17.431L11.133,16.301L11.124,16.138L11.07,16.133L4.465,20.439L3.29,20.59L2.776,20.113L2.844,19.336L3.087,19.085L5.073,17.719Z" style="fill:rgb(217,119,87);fill-rule:nonzero;"/>
        </g>
        <g transform="matrix(1.250356,0,0,1.250356,-254.091038,-148.29872)">
            <path d="M607.5,137C801.498,137 959,294.502 959,488.5C959,682.498 801.498,840 607.5,840C413.502,840 256,682.498 256,488.5C256,294.502 413.502,137 607.5,137ZM607.5,171.078C782.69,171.078 924.922,313.31 924.922,488.5C924.922,663.69 782.69,805.922 607.5,805.922C432.31,805.922 290.078,663.69 290.078,488.5C290.078,313.31 432.31,171.078 607.5,171.078Z" style="fill:rgb(235,235,235);"/>
        </g>
        <g transform="matrix(1.250356,0,0,1.250356,-254.091038,-148.29872)">
            <path d="M607.5,137L607.5,171.078C432.192,171.078 290.078,313.192 290.078,488.5C290.078,663.69 432.31,805.922 607.5,805.922C672.641,805.922 736.205,785.881 789.566,748.517L809.112,776.432C750.023,817.807 679.635,840 607.5,840C413.502,840 256,682.498 256,488.5C256,294.372 413.372,137 607.5,137Z" style="fill:rgb(217,119,87);"/>
        </g>
    </g>
</svg>
